<svg xmlns="http://www.w3.org/2000/svg" width="360" height="360"><path fill-rule="evenodd" fill="#fff" d="M355.212 180c0 96.767-78.45 175.212-175.2 175.212C83.237 355.213 4.787 276.768 4.787 180S83.237 4.787 180.01 4.787c96.75 0 175.2 78.446 175.2 175.213z"/><path fill="#0462a9" d="M180.01 360c-48.082 0-93.288-18.723-127.287-52.72S0 228.08 0 180 18.725 86.718 52.724 52.72 131.928 0 180.01 0c48.072 0 93.27 18.724 127.267 52.72s52.72 79.2 52.72 127.28-18.723 93.28-52.72 127.28S228.083 360 180.01 360zm0-350.426C86.03 9.574 9.574 86.027 9.574 180S86.03 350.425 180.01 350.425c93.966 0 170.414-76.45 170.414-170.425S273.977 9.574 180.01 9.574z"/><g fill-rule="evenodd"><path fill="#20baed" d="M161.752 191.064l-.47-4.164c-1.507-16.35 10.474-31.838 26.662-34.555 4.906-.823 9.73-.607 14.518.68 1.283.345 1.27.338 1.776-.977 4.854-12.63 13.422-21.777 25.91-27.005 26.97-11.292 57.538 4.873 63.565 33.496 1.005 4.774 1.263 9.584.72 14.43-.073.647-.047 1.017.684 1.3 11.957 4.638 19.04 13.532 21.916 25.8 3.56 15.182-4.49 31.81-18.477 38.705-4.056 2-8.34 3.084-12.87 3.143l-5.895.01c-1.242-.006-1.263-.027-1.082-1.314.245-1.754.48-3.508.64-5.275 2.304-25.717-13.765-49.916-38.36-57.744-20.4-6.493-42.825-.192-57.12 16.074-7.55 8.592-12.056 18.58-13.508 29.922-.698 5.45-.48 10.9.366 16.326.372 2.393.347 1.996-1.718 2.012-3.018.02-6.038-.047-9.056.016-6.733.14-12.46-2.293-17.332-6.805-4.772-4.422-7.728-9.854-8.46-16.363-.504-4.48.3-8.8 2.19-12.877 3.28-7.037 8.438-12.016 16.024-14.205 2.65-.764 5.362-.986 8.1-.6.37.05.75.155 1.27-.04z"/><path d="M224.9 184.436c25.082.13 45.038 20.355 44.9 45.508-.135 24.78-20.524 44.844-45.53 44.578-25.5-.27-44.835-21.273-44.56-45.57.28-24.606 20.515-44.643 45.2-44.516zm-7.015 49.1l-13.57-12.236-9.838 10.9c.357.268.64.445.886.668l21.77 19.64c1.054.95.937.746 1.82-.074l36.907-34.184c.3-.287.696-.518.883-1.064l-9.8-10.56-29.065 26.908zm-46.57-84.863c-.372.696-.877.907-1.282 1.22-7.206 5.563-12.768 12.38-16.004 20.967-1.34 3.56-2.192 7.236-2.448 11.037-.046.686-.266 1.025-.942 1.18-12.454 2.822-23.438 14.9-25.835 29.242a38.5 38.5 0 0 0-.5 4.568c-.02.553-.224.8-.773.748-.238-.018-.48-.002-.718-.002H95.938c-1.447 0-1.48-.008-1.294-1.477l4.304-33.48 2.32-17.804c.25-1.856.8-3.65 1.53-5.372 2.683-6.23 7.502-9.638 14.137-10.555 3.86-.534 7.753-.18 11.63-.282.73-.02.982.504 1.317.946l12.794 16.918c.48-.292.7-.715.974-1.075l11.86-15.717c.568-.76 1.143-1.1 2.123-1.088l13.678.027zm-27.8-9.82c-6.698.062-12.92-.212-19.116-.9-3.524-.386-7.026-.923-10.426-1.974-1.654-.5-3.264-1.12-4.637-2.216-.726-.58-1.32-1.254-1.452-2.23-.075-.55.033-.907.696-.98 2.708-.3 4.526-1.916 5.895-4.13 1.615-2.612 2.373-5.527 2.888-8.514.612-3.552.697-7.136.727-10.736.118-14.796 11.4-23.653 22.187-24.818 11.86-1.28 23.153 5.938 26.65 17.344.808 2.635 1.12 5.33 1.1 8.08-.053 4.8.318 9.573 1.692 14.212.56 1.892 1.323 3.698 2.517 5.292 1.313 1.753 2.966 2.964 5.2 3.274.864.12.966.312.787 1.128-.17.784-.624 1.388-1.218 1.9-.956.826-2.067 1.38-3.235 1.83-3.197 1.23-6.547 1.794-9.915 2.274-2.752.393-5.52.646-8.292.8-4.165.242-8.33.444-12.04.344z" fill="#0561a8"/><path fill="#0361a9" d="M94.79 152.733c-2.268 3.068-2.775 6.544-3.265 9.98l-5.09 37.425c-.178 1.262-.208 1.266-1.5 1.266l-25.44.002c-3.498 0-6.995.006-10.492-.002-1.33-.002-1.345-.016-1.18-1.234l5.106-37.13c.837-5.408 4.1-8.695 9.49-9.795 1.46-.298 2.94-.5 4.42-.494l27.947-.016z"/><path fill="#0561a8" d="M103.655 123.743c-.095 5.6-2.08 11.11-6.538 15.575-7.17 7.182-18.07 7.212-25.235.02-5.248-5.268-7.15-11.768-6.42-19.067.48-4.798 2.284-9.093 5.542-12.684 4.155-4.58 9.3-6.82 15.53-6.124 4.803.536 8.688 2.87 11.77 6.52 3.677 4.35 5.34 9.446 5.35 15.76z"/><path fill="#fff" d="M217.886 233.535l29.064-26.908 9.8 10.56c-.187.547-.573.777-.883 1.064l-36.907 34.184c-.884.82-.767 1.025-1.82.074l-21.77-19.64c-.245-.223-.528-.4-.886-.668l9.838-10.9 13.573 12.234z"/></g></svg>